<?xml version="1.0" encoding="UTF-8" standalone="no"?>
<!DOCTYPE svg PUBLIC "-//W3C//DTD SVG 1.1//EN" "http://www.w3.org/Graphics/SVG/1.1/DTD/svg11.dtd">
<svg version="1.1" xmlns="http://www.w3.org/2000/svg" xmlns:xlink="http://www.w3.org/1999/xlink" preserveAspectRatio="xMidYMid meet" viewBox="0 0 640 640" width="640" height="640"><defs><path d="M147.14 9.59C146.7 11.04 146.47 48.38 146.33 128.97C146.31 136.79 146.24 175.9 146.11 246.29C104.56 246.21 81.48 246.17 76.87 246.16C19.89 246.06 7.29 246.15 5.82 246.81C1.58 248.59 -0.93 254.15 0.53 258.38C1.24 260.38 314.48 636.62 317.09 638.57C319.26 640.19 323.11 640.47 325.83 639.2C327.68 638.37 341.67 621.7 414.72 533.12C462.4 475.38 531.91 391.07 569.25 345.84C606.64 300.6 637.83 262.65 638.6 261.48C641.16 257.53 640.13 252.13 636.18 249.01C636.05 248.91 635.39 248.39 634.22 247.45L563.94 247.15L493.72 246.92L493.93 128.15L494.15 9.44C493.4 8.3 492.98 7.67 492.9 7.54C492.25 6.49 490.62 5.09 489.27 4.36C489.11 4.28 488.31 3.87 486.88 3.14C387.29 2.96 331.96 2.86 320.9 2.84C179.31 2.64 154.65 2.7 152.8 3.37C150.14 4.31 147.91 6.81 147.14 9.59Z" id="aWsUOnJqW"></path></defs><g><g><g><use xlink:href="#aWsUOnJqW" opacity="1" fill="#e4e6ef" fill-opacity="1"></use><g><use xlink:href="#aWsUOnJqW" opacity="1" fill-opacity="0" stroke="#000000" stroke-width="1" stroke-opacity="0"></use></g></g></g></g></svg>